# xmcd
# 
# Track frame offsets:
#   150
#   16085
#   30242
#   48615
#   67645
#   82955
#   98842
#   112100
#   128085
#   143900
#   158232
#   180365
#   196517
#   209375
# 
# Disc length: 3000 seconds
# 
# Revision: 2
# Processed by: cddbd v1.5.1PL2 Copyright (c) Steve Scherf et al.
# Submitted via: Synapstar 1.0 
# 
DISCID=a70bb60e
DTITLE=Various Artist - SD046
DYEAR=1900
DGENRE=Country
TTITLE0=Tim McGraw - Just To See You Smile
TTITLE1=Wynonna Judd - Come Some Rainy Day
TTITLE2=Bryan White - One Small Miracle
TTITLE3=Reba McEntire - Whats If
TTITLE4=Mark Chestnutt, Gill and Krauss - It's Not Over
TTITLE5=Collin Raye - Little Red Rodeo
TTITLE6=Clay Walker - Then What
TTITLE7=Kinleys, The - Just Between You and Me
TTITLE8=Messina, Jo Dee - Bye Bye
TTITLE9=Dixie Chicks - I Can Love You Better
TTITLE10=Anita Cochran and Steve Wariner - What If I Said
TTITLE11=Deana Carter - ONce Upon A December
TTITLE12=Chely Wright - Just AnotherHeartache
TTITLE13=Paul Brandt - What's Come Over You
EXTD=MediaType: Karaoke CD+G Producer: StarDisc
EXTT0=
EXTT1=
EXTT2=
EXTT3=
EXTT4=
EXTT5=
EXTT6=
EXTT7=
EXTT8=
EXTT9=
EXTT10=
EXTT11=
EXTT12=
EXTT13=
PLAYORDER=
